<mxfile host="app.diagrams.net" modified="2021-04-19T07:04:09.861Z" agent="5.0 (Macintosh; Intel Mac OS X 10_15_7) AppleWebKit/537.36 (KHTML, like Gecko) Chrome/90.0.4430.72 Safari/537.36" etag="w0R-9hjJnlUDLrkSDITy" version="14.6.1" type="github">
  <diagram name="Page-1" id="13e1069c-82ec-6db2-03f1-153e76fe0fe0">
    <mxGraphModel dx="1426" dy="798" grid="1" gridSize="10" guides="1" tooltips="1" connect="1" arrows="1" fold="1" page="1" pageScale="1" pageWidth="827" pageHeight="1169" background="#ffffff" math="0" shadow="0">
      <root>
        <mxCell id="0" />
        <mxCell id="1" parent="0" />
        <mxCell id="IrIsH7fP4erWwgl9UfwG-3" value=":creator" style="shape=umlLifeline;participant=umlActor;perimeter=lifelinePerimeter;whiteSpace=wrap;html=1;container=1;collapsible=0;recursiveResize=0;verticalAlign=top;spacingTop=36;outlineConnect=0;" vertex="1" parent="1">
          <mxGeometry x="314" y="50" width="20" height="1030" as="geometry" />
        </mxCell>
        <mxCell id="IrIsH7fP4erWwgl9UfwG-5" value="" style="html=1;points=[];perimeter=orthogonalPerimeter;" vertex="1" parent="IrIsH7fP4erWwgl9UfwG-3">
          <mxGeometry x="5" y="70" width="10" height="930" as="geometry" />
        </mxCell>
        <mxCell id="IrIsH7fP4erWwgl9UfwG-4" value=":executive" style="shape=umlLifeline;participant=umlActor;perimeter=lifelinePerimeter;whiteSpace=wrap;html=1;container=1;collapsible=0;recursiveResize=0;verticalAlign=top;spacingTop=36;outlineConnect=0;" vertex="1" parent="1">
          <mxGeometry x="494" y="50" width="20" height="1030" as="geometry" />
        </mxCell>
        <mxCell id="IrIsH7fP4erWwgl9UfwG-6" value="" style="html=1;points=[];perimeter=orthogonalPerimeter;" vertex="1" parent="IrIsH7fP4erWwgl9UfwG-4">
          <mxGeometry y="70" width="10" height="920" as="geometry" />
        </mxCell>
        <mxCell id="IrIsH7fP4erWwgl9UfwG-7" value="stelltAntrag()" style="html=1;verticalAlign=bottom;startArrow=oval;endArrow=block;startSize=8;exitX=1;exitY=0.015;exitDx=0;exitDy=0;exitPerimeter=0;" edge="1" target="IrIsH7fP4erWwgl9UfwG-6" parent="1" source="IrIsH7fP4erWwgl9UfwG-5">
          <mxGeometry relative="1" as="geometry">
            <mxPoint x="424" y="120" as="sourcePoint" />
          </mxGeometry>
        </mxCell>
        <mxCell id="IrIsH7fP4erWwgl9UfwG-8" value="Antrag wird bearbeitet" style="html=1;verticalAlign=bottom;endArrow=open;dashed=1;endSize=8;" edge="1" parent="1" source="IrIsH7fP4erWwgl9UfwG-6">
          <mxGeometry x="-0.0328" relative="1" as="geometry">
            <mxPoint x="494" y="150" as="sourcePoint" />
            <mxPoint x="328" y="218" as="targetPoint" />
            <Array as="points">
              <mxPoint x="470" y="219" />
              <mxPoint x="420" y="219" />
            </Array>
            <mxPoint as="offset" />
          </mxGeometry>
        </mxCell>
        <mxCell id="IrIsH7fP4erWwgl9UfwG-9" value=":Creation Mail &lt;br&gt;(creator)" style="shape=umlLifeline;perimeter=lifelinePerimeter;whiteSpace=wrap;html=1;container=1;collapsible=0;recursiveResize=0;outlineConnect=0;size=40;" vertex="1" parent="1">
          <mxGeometry x="120" y="175" width="100" height="145" as="geometry" />
        </mxCell>
        <mxCell id="IrIsH7fP4erWwgl9UfwG-10" value="creates" style="html=1;verticalAlign=bottom;startArrow=oval;startFill=1;endArrow=block;startSize=8;entryX=1;entryY=0.103;entryDx=0;entryDy=0;entryPerimeter=0;" edge="1" parent="1" source="IrIsH7fP4erWwgl9UfwG-5" target="IrIsH7fP4erWwgl9UfwG-9">
          <mxGeometry width="60" relative="1" as="geometry">
            <mxPoint x="320" y="180" as="sourcePoint" />
            <mxPoint x="230" y="169" as="targetPoint" />
          </mxGeometry>
        </mxCell>
        <mxCell id="IrIsH7fP4erWwgl9UfwG-11" value=":Creation Mail&lt;br&gt;(executive)" style="shape=umlLifeline;perimeter=lifelinePerimeter;whiteSpace=wrap;html=1;container=1;collapsible=0;recursiveResize=0;outlineConnect=0;size=40;" vertex="1" parent="1">
          <mxGeometry x="610" y="175" width="100" height="195" as="geometry" />
        </mxCell>
        <mxCell id="IrIsH7fP4erWwgl9UfwG-17" value="" style="html=1;points=[];perimeter=orthogonalPerimeter;" vertex="1" parent="IrIsH7fP4erWwgl9UfwG-11">
          <mxGeometry x="45" y="55" width="10" height="80" as="geometry" />
        </mxCell>
        <mxCell id="IrIsH7fP4erWwgl9UfwG-13" value="creates" style="html=1;verticalAlign=bottom;startArrow=oval;startFill=1;endArrow=block;startSize=8;" edge="1" parent="1" source="IrIsH7fP4erWwgl9UfwG-4">
          <mxGeometry width="60" relative="1" as="geometry">
            <mxPoint x="560" y="120" as="sourcePoint" />
            <mxPoint x="610" y="182" as="targetPoint" />
          </mxGeometry>
        </mxCell>
        <mxCell id="IrIsH7fP4erWwgl9UfwG-18" value="LinkAufruf()" style="html=1;verticalAlign=bottom;endArrow=block;entryX=0;entryY=0;" edge="1" target="IrIsH7fP4erWwgl9UfwG-17" parent="1" source="IrIsH7fP4erWwgl9UfwG-4">
          <mxGeometry relative="1" as="geometry">
            <mxPoint x="540" y="390" as="sourcePoint" />
          </mxGeometry>
        </mxCell>
        <mxCell id="IrIsH7fP4erWwgl9UfwG-19" value="öffnet Bearbeitungs-&lt;br&gt;fenster" style="html=1;verticalAlign=bottom;endArrow=open;dashed=1;endSize=8;exitX=0;exitY=0.95;" edge="1" source="IrIsH7fP4erWwgl9UfwG-17" parent="1" target="IrIsH7fP4erWwgl9UfwG-4">
          <mxGeometry relative="1" as="geometry">
            <mxPoint x="540" y="466" as="targetPoint" />
          </mxGeometry>
        </mxCell>
        <mxCell id="IrIsH7fP4erWwgl9UfwG-20" value="" style="shape=umlDestroy;whiteSpace=wrap;html=1;strokeWidth=3;" vertex="1" parent="1">
          <mxGeometry x="645" y="370" width="30" height="30" as="geometry" />
        </mxCell>
        <mxCell id="IrIsH7fP4erWwgl9UfwG-21" value="" style="shape=umlDestroy;whiteSpace=wrap;html=1;strokeWidth=3;" vertex="1" parent="1">
          <mxGeometry x="155" y="330" width="30" height="30" as="geometry" />
        </mxCell>
        <mxCell id="IrIsH7fP4erWwgl9UfwG-22" value="Bestätigung an den Antragsteller das der Antrag erfolgreich eingereicht wurde" style="shape=note2;boundedLbl=1;whiteSpace=wrap;html=1;size=14;verticalAlign=top;align=center;" vertex="1" parent="1">
          <mxGeometry x="35" y="40" width="125" height="100" as="geometry" />
        </mxCell>
        <mxCell id="IrIsH7fP4erWwgl9UfwG-23" value="" style="endArrow=none;dashed=1;html=1;exitX=0.442;exitY=1.025;exitDx=0;exitDy=0;exitPerimeter=0;" edge="1" parent="1" source="IrIsH7fP4erWwgl9UfwG-22" target="IrIsH7fP4erWwgl9UfwG-9">
          <mxGeometry width="50" height="50" relative="1" as="geometry">
            <mxPoint x="40" y="270" as="sourcePoint" />
            <mxPoint x="90" y="220" as="targetPoint" />
            <Array as="points">
              <mxPoint x="88" y="230" />
            </Array>
          </mxGeometry>
        </mxCell>
        <mxCell id="IrIsH7fP4erWwgl9UfwG-25" value="Antragsteller WX hat Antrag YZ eingereicht.&lt;br&gt;Antrag kann jetzt freigegeben/abgelehnt&lt;br&gt;werden" style="shape=note2;boundedLbl=1;whiteSpace=wrap;html=1;size=14;verticalAlign=top;align=center;" vertex="1" parent="1">
          <mxGeometry x="645" y="40" width="125" height="100" as="geometry" />
        </mxCell>
        <mxCell id="IrIsH7fP4erWwgl9UfwG-27" value="" style="endArrow=none;dashed=1;html=1;entryX=0.656;entryY=1;entryDx=0;entryDy=0;entryPerimeter=0;" edge="1" parent="1" source="IrIsH7fP4erWwgl9UfwG-11" target="IrIsH7fP4erWwgl9UfwG-25">
          <mxGeometry width="50" height="50" relative="1" as="geometry">
            <mxPoint x="730" y="310" as="sourcePoint" />
            <mxPoint x="780" y="260" as="targetPoint" />
            <Array as="points">
              <mxPoint x="727" y="240" />
            </Array>
          </mxGeometry>
        </mxCell>
        <mxCell id="IrIsH7fP4erWwgl9UfwG-29" value="if" style="shape=umlFrame;whiteSpace=wrap;html=1;" vertex="1" parent="1">
          <mxGeometry x="50" y="440" width="710" height="260" as="geometry" />
        </mxCell>
        <mxCell id="IrIsH7fP4erWwgl9UfwG-30" value="[request granted]" style="text;html=1;strokeColor=none;fillColor=none;align=center;verticalAlign=middle;whiteSpace=wrap;rounded=0;" vertex="1" parent="1">
          <mxGeometry x="106" y="460" width="130" height="20" as="geometry" />
        </mxCell>
        <mxCell id="IrIsH7fP4erWwgl9UfwG-35" value="AntragFreigeben()" style="html=1;verticalAlign=bottom;startArrow=oval;startFill=1;endArrow=block;startSize=8;exitX=0.5;exitY=0.446;exitDx=0;exitDy=0;exitPerimeter=0;" edge="1" parent="1" source="IrIsH7fP4erWwgl9UfwG-6" target="IrIsH7fP4erWwgl9UfwG-3">
          <mxGeometry width="60" relative="1" as="geometry">
            <mxPoint x="380" y="520" as="sourcePoint" />
            <mxPoint x="440" y="520" as="targetPoint" />
          </mxGeometry>
        </mxCell>
        <mxCell id="IrIsH7fP4erWwgl9UfwG-37" value="" style="html=1;verticalAlign=bottom;endArrow=open;dashed=1;endSize=8;exitX=0.9;exitY=0.516;exitDx=0;exitDy=0;exitPerimeter=0;" edge="1" parent="1" source="IrIsH7fP4erWwgl9UfwG-5" target="IrIsH7fP4erWwgl9UfwG-6">
          <mxGeometry relative="1" as="geometry">
            <mxPoint x="460" y="620" as="sourcePoint" />
            <mxPoint x="380" y="620" as="targetPoint" />
          </mxGeometry>
        </mxCell>
        <mxCell id="IrIsH7fP4erWwgl9UfwG-38" value=":Granted Mail" style="shape=umlLifeline;perimeter=lifelinePerimeter;whiteSpace=wrap;html=1;container=1;collapsible=0;recursiveResize=0;outlineConnect=0;size=40;" vertex="1" parent="1">
          <mxGeometry x="120" y="550" width="100" height="100" as="geometry" />
        </mxCell>
        <mxCell id="IrIsH7fP4erWwgl9UfwG-40" value="creates" style="html=1;verticalAlign=bottom;startArrow=oval;startFill=1;endArrow=block;startSize=8;" edge="1" parent="1" source="IrIsH7fP4erWwgl9UfwG-5">
          <mxGeometry width="60" relative="1" as="geometry">
            <mxPoint x="40" y="510" as="sourcePoint" />
            <mxPoint x="220" y="570" as="targetPoint" />
          </mxGeometry>
        </mxCell>
        <mxCell id="IrIsH7fP4erWwgl9UfwG-41" value="dispatch" style="html=1;verticalAlign=bottom;startArrow=oval;startFill=1;endArrow=block;startSize=8;exitX=0.1;exitY=0.489;exitDx=0;exitDy=0;exitPerimeter=0;" edge="1" parent="1" source="IrIsH7fP4erWwgl9UfwG-6">
          <mxGeometry width="60" relative="1" as="geometry">
            <mxPoint x="570" y="590" as="sourcePoint" />
            <mxPoint x="610" y="570" as="targetPoint" />
          </mxGeometry>
        </mxCell>
        <mxCell id="IrIsH7fP4erWwgl9UfwG-42" value=":Accounting Mail" style="shape=umlLifeline;perimeter=lifelinePerimeter;whiteSpace=wrap;html=1;container=1;collapsible=0;recursiveResize=0;outlineConnect=0;size=40;" vertex="1" parent="1">
          <mxGeometry x="610" y="550" width="100" height="100" as="geometry" />
        </mxCell>
        <mxCell id="IrIsH7fP4erWwgl9UfwG-43" value="" style="shape=umlDestroy;whiteSpace=wrap;html=1;strokeWidth=3;" vertex="1" parent="1">
          <mxGeometry x="645" y="650" width="30" height="30" as="geometry" />
        </mxCell>
        <mxCell id="IrIsH7fP4erWwgl9UfwG-44" value="" style="shape=umlDestroy;whiteSpace=wrap;html=1;strokeWidth=3;" vertex="1" parent="1">
          <mxGeometry x="155" y="650" width="30" height="30" as="geometry" />
        </mxCell>
        <mxCell id="IrIsH7fP4erWwgl9UfwG-48" value="AntragAbgelehnt()" style="html=1;verticalAlign=bottom;startArrow=oval;startFill=1;endArrow=block;startSize=8;exitX=0.5;exitY=0.446;exitDx=0;exitDy=0;exitPerimeter=0;" edge="1" parent="1">
          <mxGeometry width="60" relative="1" as="geometry">
            <mxPoint x="501.5" y="780" as="sourcePoint" />
            <mxPoint x="326" y="780" as="targetPoint" />
          </mxGeometry>
        </mxCell>
        <mxCell id="IrIsH7fP4erWwgl9UfwG-49" value="" style="html=1;verticalAlign=bottom;endArrow=open;dashed=1;endSize=8;exitX=0.9;exitY=0.516;exitDx=0;exitDy=0;exitPerimeter=0;" edge="1" parent="1">
          <mxGeometry relative="1" as="geometry">
            <mxPoint x="331" y="860.0000000000001" as="sourcePoint" />
            <mxPoint x="497" y="860.0000000000001" as="targetPoint" />
          </mxGeometry>
        </mxCell>
        <mxCell id="IrIsH7fP4erWwgl9UfwG-50" value=":Denied Mail" style="shape=umlLifeline;perimeter=lifelinePerimeter;whiteSpace=wrap;html=1;container=1;collapsible=0;recursiveResize=0;outlineConnect=0;size=40;" vertex="1" parent="1">
          <mxGeometry x="120" y="800" width="100" height="100" as="geometry" />
        </mxCell>
        <mxCell id="IrIsH7fP4erWwgl9UfwG-51" value="creates" style="html=1;verticalAlign=bottom;startArrow=oval;startFill=1;endArrow=block;startSize=8;" edge="1" parent="1">
          <mxGeometry width="60" relative="1" as="geometry">
            <mxPoint x="319" y="820" as="sourcePoint" />
            <mxPoint x="220" y="820" as="targetPoint" />
          </mxGeometry>
        </mxCell>
        <mxCell id="IrIsH7fP4erWwgl9UfwG-52" value="" style="shape=umlDestroy;whiteSpace=wrap;html=1;strokeWidth=3;" vertex="1" parent="1">
          <mxGeometry x="155" y="900" width="30" height="30" as="geometry" />
        </mxCell>
        <mxCell id="IrIsH7fP4erWwgl9UfwG-53" value="else" style="shape=umlFrame;whiteSpace=wrap;html=1;" vertex="1" parent="1">
          <mxGeometry x="50" y="720" width="710" height="260" as="geometry" />
        </mxCell>
        <mxCell id="IrIsH7fP4erWwgl9UfwG-54" value="[request rejected]" style="text;html=1;strokeColor=none;fillColor=none;align=center;verticalAlign=middle;whiteSpace=wrap;rounded=0;" vertex="1" parent="1">
          <mxGeometry x="110" y="750" width="130" height="20" as="geometry" />
        </mxCell>
        <mxCell id="IrIsH7fP4erWwgl9UfwG-55" value="" style="shape=umlDestroy;whiteSpace=wrap;html=1;strokeWidth=3;" vertex="1" parent="1">
          <mxGeometry x="309" y="1080" width="30" height="30" as="geometry" />
        </mxCell>
        <mxCell id="IrIsH7fP4erWwgl9UfwG-56" value="" style="shape=umlDestroy;whiteSpace=wrap;html=1;strokeWidth=3;" vertex="1" parent="1">
          <mxGeometry x="489" y="1080" width="30" height="30" as="geometry" />
        </mxCell>
      </root>
    </mxGraphModel>
  </diagram>
</mxfile>
